<svg xmlns="http://www.w3.org/2000/svg" xmlns:xlink="http://www.w3.org/1999/xlink" width="500" zoomAndPan="magnify" viewBox="0 0 375 74.999997" height="100" preserveAspectRatio="xMidYMid meet" version="1.0"><defs><g/></defs><g fill="#ffffff" fill-opacity="1"><g transform="translate(29.059108, 54.780045)"><g><path d="M 23.5 0 L 15.984375 0 L -1.25 -32.15625 L 11.53125 -32.15625 L 19.359375 -14.796875 L 27.078125 -32.15625 L 34.71875 -32.15625 L 42.421875 -14.796875 L 50.265625 -32.15625 L 63.046875 -32.15625 L 45.8125 0 L 38.296875 0 L 30.890625 -16.609375 Z M 23.5 0 "/></g></g></g><g fill="#ffffff" fill-opacity="1"><g transform="translate(90.843637, 54.780045)"><g><path d="M 36.28125 -14.546875 L 12.96875 -14.546875 C 12.96875 -12.285156 13.695312 -10.609375 15.15625 -9.515625 C 16.625 -8.429688 18.210938 -7.890625 19.921875 -7.890625 C 21.722656 -7.890625 23.144531 -8.128906 24.1875 -8.609375 C 25.238281 -9.097656 26.429688 -10.050781 27.765625 -11.46875 L 35.78125 -7.453125 C 32.4375 -1.859375 26.878906 0.9375 19.109375 0.9375 C 14.265625 0.9375 10.109375 -0.722656 6.640625 -4.046875 C 3.171875 -7.367188 1.4375 -11.367188 1.4375 -16.046875 C 1.4375 -20.722656 3.171875 -24.734375 6.640625 -28.078125 C 10.109375 -31.421875 14.265625 -33.09375 19.109375 -33.09375 C 24.210938 -33.09375 28.359375 -31.617188 31.546875 -28.671875 C 34.742188 -25.722656 36.34375 -21.515625 36.34375 -16.046875 C 36.34375 -15.296875 36.320312 -14.796875 36.28125 -14.546875 Z M 13.28125 -20.6875 L 25.5 -20.6875 C 25.25 -22.351562 24.59375 -23.632812 23.53125 -24.53125 C 22.46875 -25.4375 21.097656 -25.890625 19.421875 -25.890625 C 17.585938 -25.890625 16.125 -25.40625 15.03125 -24.4375 C 13.945312 -23.476562 13.363281 -22.226562 13.28125 -20.6875 Z M 13.28125 -20.6875 "/></g></g></g><g fill="#ffffff" fill-opacity="1"><g transform="translate(128.628704, 54.780045)"><g><path d="M 17.734375 -33.09375 C 19.578125 -33.09375 21.394531 -32.882812 23.1875 -32.46875 C 24.988281 -32.050781 26.328125 -31.628906 27.203125 -31.203125 L 28.515625 -30.578125 L 24.875 -23.3125 C 22.375 -24.644531 19.992188 -25.3125 17.734375 -25.3125 C 16.484375 -25.3125 15.597656 -25.175781 15.078125 -24.90625 C 14.554688 -24.632812 14.296875 -24.125 14.296875 -23.375 C 14.296875 -23.207031 14.316406 -23.039062 14.359375 -22.875 C 14.398438 -22.707031 14.484375 -22.550781 14.609375 -22.40625 C 14.734375 -22.257812 14.847656 -22.132812 14.953125 -22.03125 C 15.054688 -21.925781 15.234375 -21.8125 15.484375 -21.6875 C 15.734375 -21.5625 15.929688 -21.46875 16.078125 -21.40625 C 16.222656 -21.34375 16.460938 -21.25 16.796875 -21.125 C 17.128906 -21 17.378906 -20.90625 17.546875 -20.84375 C 17.710938 -20.78125 17.992188 -20.6875 18.390625 -20.5625 C 18.785156 -20.4375 19.085938 -20.351562 19.296875 -20.3125 C 20.597656 -19.925781 21.726562 -19.503906 22.6875 -19.046875 C 23.644531 -18.585938 24.65625 -17.960938 25.71875 -17.171875 C 26.789062 -16.378906 27.617188 -15.375 28.203125 -14.15625 C 28.785156 -12.945312 29.078125 -11.570312 29.078125 -10.03125 C 29.078125 -2.71875 24 0.9375 13.84375 0.9375 C 11.550781 0.9375 9.367188 0.582031 7.296875 -0.125 C 5.234375 -0.832031 3.738281 -1.539062 2.8125 -2.25 L 1.4375 -3.390625 L 5.953125 -10.96875 C 6.285156 -10.675781 6.722656 -10.332031 7.265625 -9.9375 C 7.804688 -9.539062 8.785156 -8.992188 10.203125 -8.296875 C 11.628906 -7.609375 12.863281 -7.265625 13.90625 -7.265625 C 16.207031 -7.265625 17.359375 -8.039062 17.359375 -9.59375 C 17.359375 -10.300781 17.066406 -10.851562 16.484375 -11.25 C 15.898438 -11.644531 14.90625 -12.09375 13.5 -12.59375 C 12.101562 -13.09375 11.007812 -13.550781 10.21875 -13.96875 C 8.207031 -15.019531 6.617188 -16.203125 5.453125 -17.515625 C 4.285156 -18.828125 3.703125 -20.570312 3.703125 -22.75 C 3.703125 -26.007812 4.960938 -28.546875 7.484375 -30.359375 C 10.015625 -32.179688 13.429688 -33.09375 17.734375 -33.09375 Z M 17.734375 -33.09375 "/></g></g></g><g fill="#ffffff" fill-opacity="1"><g transform="translate(159.458321, 54.780045)"><g><path d="M 3.765625 0 L 3.765625 -32.15625 L 14.859375 -32.15625 L 14.859375 -28.765625 L 14.984375 -28.765625 C 17.859375 -31.648438 20.925781 -33.09375 24.1875 -33.09375 C 26.53125 -33.09375 28.722656 -32.609375 30.765625 -31.640625 C 32.816406 -30.679688 34.363281 -29.203125 35.40625 -27.203125 C 38.664062 -31.128906 42.21875 -33.09375 46.0625 -33.09375 C 49.488281 -33.09375 52.429688 -32.128906 54.890625 -30.203125 C 57.359375 -28.285156 58.59375 -25.28125 58.59375 -21.1875 L 58.59375 0 L 47.5 0 L 47.5 -18.171875 C 47.5 -19.890625 47.03125 -21.320312 46.09375 -22.46875 C 45.15625 -23.613281 43.742188 -24.1875 41.859375 -24.1875 C 40.234375 -24.1875 38.988281 -23.695312 38.125 -22.71875 C 37.269531 -21.738281 36.800781 -20.554688 36.71875 -19.171875 L 36.71875 0 L 25.625 0 L 25.625 -18.171875 C 25.625 -19.890625 25.15625 -21.320312 24.21875 -22.46875 C 23.28125 -23.613281 21.875 -24.1875 20 -24.1875 C 18.28125 -24.1875 16.992188 -23.65625 16.140625 -22.59375 C 15.285156 -21.53125 14.859375 -20.265625 14.859375 -18.796875 L 14.859375 0 Z M 3.765625 0 "/></g></g></g><g fill="#ffffff" fill-opacity="1"><g transform="translate(221.180202, 54.780045)"><g><path d="M 4.828125 -50.0625 C 6.117188 -51.363281 7.660156 -52.015625 9.453125 -52.015625 C 11.253906 -52.015625 12.800781 -51.363281 14.09375 -50.0625 C 15.394531 -48.769531 16.046875 -47.226562 16.046875 -45.4375 C 16.046875 -43.644531 15.394531 -42.097656 14.09375 -40.796875 C 12.800781 -39.503906 11.253906 -38.859375 9.453125 -38.859375 C 7.660156 -38.859375 6.117188 -39.503906 4.828125 -40.796875 C 3.535156 -42.097656 2.890625 -43.644531 2.890625 -45.4375 C 2.890625 -47.226562 3.535156 -48.769531 4.828125 -50.0625 Z M 3.765625 -32.15625 L 3.765625 0 L 14.859375 0 L 14.859375 -32.15625 Z M 3.765625 -32.15625 "/></g></g></g><g fill="#ffffff" fill-opacity="1"><g transform="translate(240.104071, 54.780045)"><g><path d="M 3.765625 0 L 3.765625 -53.890625 L 14.859375 -53.890625 L 14.859375 0 Z M 3.765625 0 "/></g></g></g><g fill="#ffffff" fill-opacity="1"><g transform="translate(258.714633, 54.780045)"><g><path d="M 36.28125 -14.546875 L 12.96875 -14.546875 C 12.96875 -12.285156 13.695312 -10.609375 15.15625 -9.515625 C 16.625 -8.429688 18.210938 -7.890625 19.921875 -7.890625 C 21.722656 -7.890625 23.144531 -8.128906 24.1875 -8.609375 C 25.238281 -9.097656 26.429688 -10.050781 27.765625 -11.46875 L 35.78125 -7.453125 C 32.4375 -1.859375 26.878906 0.9375 19.109375 0.9375 C 14.265625 0.9375 10.109375 -0.722656 6.640625 -4.046875 C 3.171875 -7.367188 1.4375 -11.367188 1.4375 -16.046875 C 1.4375 -20.722656 3.171875 -24.734375 6.640625 -28.078125 C 10.109375 -31.421875 14.265625 -33.09375 19.109375 -33.09375 C 24.210938 -33.09375 28.359375 -31.617188 31.546875 -28.671875 C 34.742188 -25.722656 36.34375 -21.515625 36.34375 -16.046875 C 36.34375 -15.296875 36.320312 -14.796875 36.28125 -14.546875 Z M 13.28125 -20.6875 L 25.5 -20.6875 C 25.25 -22.351562 24.59375 -23.632812 23.53125 -24.53125 C 22.46875 -25.4375 21.097656 -25.890625 19.421875 -25.890625 C 17.585938 -25.890625 16.125 -25.40625 15.03125 -24.4375 C 13.945312 -23.476562 13.363281 -22.226562 13.28125 -20.6875 Z M 13.28125 -20.6875 "/></g></g></g><g fill="#ffffff" fill-opacity="1"><g transform="translate(296.4997, 54.780045)"><g><path d="M 10.90625 -13.40625 C 12.90625 -13.40625 14.601562 -12.707031 16 -11.3125 C 17.40625 -9.914062 18.109375 -8.210938 18.109375 -6.203125 C 18.109375 -4.242188 17.40625 -2.5625 16 -1.15625 C 14.601562 0.238281 12.90625 0.9375 10.90625 0.9375 C 8.9375 0.9375 7.253906 0.238281 5.859375 -1.15625 C 4.460938 -2.5625 3.765625 -4.242188 3.765625 -6.203125 C 3.765625 -8.210938 4.460938 -9.914062 5.859375 -11.3125 C 7.253906 -12.707031 8.9375 -13.40625 10.90625 -13.40625 Z M 10.90625 -13.40625 "/></g></g></g></svg>