<svg xmlns="http://www.w3.org/2000/svg" xmlns:xlink="http://www.w3.org/1999/xlink" width="500" zoomAndPan="magnify" viewBox="0 0 375 374.999991" height="500" preserveAspectRatio="xMidYMid meet" version="1.0"><defs><g/></defs><g fill="#ffffff" fill-opacity="1"><g transform="translate(0.0000045, 264.487363)"><g><path d="M 97.96875 0 L 66.625 0 L -5.21875 -134.015625 L 48.0625 -134.015625 L 80.71875 -61.65625 L 112.859375 -134.015625 L 144.734375 -134.015625 L 176.859375 -61.65625 L 209.515625 -134.015625 L 262.8125 -134.015625 L 190.96875 0 L 159.625 0 L 128.796875 -69.234375 Z M 97.96875 0 "/></g></g></g><g fill="#ffffff" fill-opacity="1"><g transform="translate(257.583551, 264.487363)"><g><path d="M 45.453125 -55.90625 C 53.816406 -55.90625 60.914062 -52.988281 66.75 -47.15625 C 72.582031 -41.320312 75.5 -34.222656 75.5 -25.859375 C 75.5 -17.671875 72.582031 -10.660156 66.75 -4.828125 C 60.914062 1.003906 53.816406 3.921875 45.453125 3.921875 C 37.265625 3.921875 30.253906 1.003906 24.421875 -4.828125 C 18.585938 -10.660156 15.671875 -17.671875 15.671875 -25.859375 C 15.671875 -34.222656 18.585938 -41.320312 24.421875 -47.15625 C 30.253906 -52.988281 37.265625 -55.90625 45.453125 -55.90625 Z M 45.453125 -55.90625 "/></g></g></g></svg>